<?xml version="1.0" encoding="UTF-8"?>
<svg id="Layer_1" data-name="Layer 1" xmlns="http://www.w3.org/2000/svg" viewBox="0 0 538.12 538.12">
  <defs>
    <style>
      .cls-1 {
        fill: #231f20;
        font-family: Satoshi-Light, Satoshi;
        font-size: 40.7px;
        font-weight: 300;
      }
    </style>
  </defs>
  <text class="cls-1" transform="translate(119.48 88.38) rotate(-36.83)"><tspan x="0" y="0">d</tspan></text>
  <text class="cls-1" transform="translate(137.6 74.93) rotate(-32.06)"><tspan x="0" y="0">s</tspan></text>
  <text class="cls-1" transform="translate(151.74 66.06) rotate(-27.97)"><tspan x="0" y="0">s</tspan></text>
  <text class="cls-1" transform="translate(166.58 58.26) rotate(-24.57)"><tspan x="0" y="0"> </tspan></text>
  <text class="cls-1" transform="translate(176.4 53.51) rotate(-20.44)"><tspan x="0" y="0">d</tspan></text>
  <text class="cls-1" transform="translate(197.59 45.72) rotate(-15.62)"><tspan x="0" y="0">s</tspan></text>
  <text class="cls-1" transform="translate(213.66 41.22) rotate(-11.51)"><tspan x="0" y="0">s</tspan></text>
  <text class="cls-1" transform="translate(230.09 37.95) rotate(-8.11)"><tspan x="0" y="0"> </tspan></text>
  <text class="cls-1" transform="translate(240.86 36.18) rotate(-4.02)"><tspan x="0" y="0">d</tspan></text>
  <text class="cls-1" transform="translate(263.38 34.67) rotate(.93)"><tspan x="0" y="0">s</tspan></text>
  <text class="cls-1" transform="translate(280.11 34.89) rotate(4.74)"><tspan x="0" y="0">s</tspan></text>
  <text class="cls-1" transform="translate(296.8 36.34) rotate(8.12)"><tspan x="0" y="0"> </tspan></text>
  <text class="cls-1" transform="translate(307.63 37.66) rotate(12.24)"><tspan x="0" y="0">d</tspan></text>
  <text class="cls-1" transform="translate(329.65 42.54) rotate(17.06)"><tspan x="0" y="0">s</tspan></text>
  <text class="cls-1" transform="translate(345.62 47.42) rotate(21.17)"><tspan x="0" y="0">s</tspan></text>
  <text class="cls-1" transform="translate(361.22 53.54) rotate(24.58)"><tspan x="0" y="0"> </tspan></text>
  <text class="cls-1" transform="translate(371.23 57.87) rotate(28.7)"><tspan x="0" y="0">d</tspan></text>
  <text class="cls-1" transform="translate(390.99 68.8) rotate(33.49)"><tspan x="0" y="0">s</tspan></text>
  <text class="cls-1" transform="translate(404.91 77.98) rotate(37.55)"><tspan x="0" y="0">s</tspan></text>
  <text class="cls-1" transform="translate(418.17 88.27) rotate(40.93)"><tspan x="0" y="0"> </tspan></text>
  <text class="cls-1" transform="translate(426.56 95.25) rotate(45.01)"><tspan x="0" y="0">d</tspan></text>
  <text class="cls-1" transform="translate(442.46 111.29) rotate(49.77)"><tspan x="0" y="0">s</tspan></text>
  <text class="cls-1" transform="translate(453.24 124.01) rotate(53.83)"><tspan x="0" y="0">s</tspan></text>
  <text class="cls-1" transform="translate(463.08 137.59) rotate(57.22)"><tspan x="0" y="0"> </tspan></text>
  <text class="cls-1" transform="translate(469.18 146.65) rotate(61.33)"><tspan x="0" y="0">d</tspan></text>
  <text class="cls-1" transform="translate(479.92 166.5) rotate(66.13)"><tspan x="0" y="0">s</tspan></text>
  <text class="cls-1" transform="translate(486.68 181.73) rotate(70.23)"><tspan x="0" y="0">s</tspan></text>
  <text class="cls-1" transform="translate(492.29 197.55) rotate(73.66)"><tspan x="0" y="0"> </tspan></text>
  <text class="cls-1" transform="translate(495.58 207.94) rotate(77.79)"><tspan x="0" y="0">d</tspan></text>
  <text class="cls-1" transform="translate(500.25 230.02) rotate(82.59)"><tspan x="0" y="0">s</tspan></text>
  <text class="cls-1" transform="translate(502.42 246.58) rotate(86.65)"><tspan x="0" y="0">s</tspan></text>
  <text class="cls-1" transform="translate(503.24 263.22) rotate(89.07)"><tspan x="0" y="0"> </tspan></text>
  <text class="cls-1" transform="translate(503.56 274.23) rotate(94.03)"><tspan x="0" y="0">d</tspan></text>
  <text class="cls-1" transform="translate(501.87 296.75) rotate(98.81)"><tspan x="0" y="0">s</tspan></text>
  <text class="cls-1" transform="translate(499.33 313.24) rotate(102.91)"><tspan x="0" y="0">s</tspan></text>
  <text class="cls-1" transform="translate(495.51 329.57) rotate(106.33)"><tspan x="0" y="0"> </tspan></text>
  <text class="cls-1" transform="translate(492.67 340.1) rotate(110.46)"><tspan x="0" y="0">d</tspan></text>
  <text class="cls-1" transform="translate(484.68 361.22) rotate(115.28)"><tspan x="0" y="0">s</tspan></text>
  <text class="cls-1" transform="translate(477.58 376.3) rotate(119.37)"><tspan x="0" y="0">s</tspan></text>
  <text class="cls-1" transform="translate(469.29 390.87) rotate(122.76)"><tspan x="0" y="0"> </tspan></text>
  <text class="cls-1" transform="translate(463.58 400.17) rotate(126.85)"><tspan x="0" y="0">d</tspan></text>
  <text class="cls-1" transform="translate(449.95 418.18) rotate(131.62)"><tspan x="0" y="0">s</tspan></text>
  <text class="cls-1" transform="translate(438.88 430.67) rotate(135.68)"><tspan x="0" y="0">s</tspan></text>
  <text class="cls-1" transform="translate(426.84 442.32) rotate(139.05)"><tspan x="0" y="0"> </tspan></text>
  <text class="cls-1" transform="translate(418.74 449.66) rotate(143.13)"><tspan x="0" y="0">d</tspan></text>
  <text class="cls-1" transform="translate(400.61 463.12) rotate(147.91)"><tspan x="0" y="0">s</tspan></text>
  <text class="cls-1" transform="translate(386.48 472.01) rotate(152)"><tspan x="0" y="0">s</tspan></text>
  <text class="cls-1" transform="translate(371.66 479.8) rotate(155.4)"><tspan x="0" y="0"> </tspan></text>
  <text class="cls-1" transform="translate(361.84 484.55) rotate(159.53)"><tspan x="0" y="0">d</tspan></text>
  <text class="cls-1" transform="translate(340.64 492.36) rotate(164.36)"><tspan x="0" y="0">s</tspan></text>
  <text class="cls-1" transform="translate(324.6 496.87) rotate(168.46)"><tspan x="0" y="0">s</tspan></text>
  <text class="cls-1" transform="translate(308.15 500.15) rotate(171.86)"><tspan x="0" y="0"> </tspan></text>
  <text class="cls-1" transform="translate(297.38 501.92) rotate(175.95)"><tspan x="0" y="0">d</tspan></text>
  <text class="cls-1" transform="translate(274.88 503.45) rotate(-179.07)"><tspan x="0" y="0">s</tspan></text>
  <text class="cls-1" transform="translate(258.15 503.23) rotate(-175.3)"><tspan x="0" y="0">s</tspan></text>
  <text class="cls-1" transform="translate(241.44 501.79) rotate(-171.91)"><tspan x="0" y="0"> </tspan></text>
  <text class="cls-1" transform="translate(230.62 500.48) rotate(-167.8)"><tspan x="0" y="0">d</tspan></text>
  <text class="cls-1" transform="translate(208.58 495.61) rotate(-162.97)"><tspan x="0" y="0">s</tspan></text>
  <text class="cls-1" transform="translate(192.63 490.74) rotate(-158.86)"><tspan x="0" y="0">s</tspan></text>
  <text class="cls-1" transform="translate(177.02 484.63) rotate(-155.45)"><tspan x="0" y="0"> </tspan></text>
  <text class="cls-1" transform="translate(167.01 480.31) rotate(-151.34)"><tspan x="0" y="0">d</tspan></text>
  <text class="cls-1" transform="translate(147.24 469.39) rotate(-146.54)"><tspan x="0" y="0">s</tspan></text>
  <text class="cls-1" transform="translate(133.3 460.2) rotate(-142.47)"><tspan x="0" y="0">s</tspan></text>
  <text class="cls-1" transform="translate(120.06 449.93) rotate(-139.1)"><tspan x="0" y="0"> </tspan></text>
  <text class="cls-1" transform="translate(111.66 442.96) rotate(-135.02)"><tspan x="0" y="0">d</tspan></text>
  <text class="cls-1" transform="translate(95.75 426.92) rotate(-130.26)"><tspan x="0" y="0">s</tspan></text>
  <text class="cls-1" transform="translate(84.95 414.19) rotate(-126.2)"><tspan x="0" y="0">s</tspan></text>
  <text class="cls-1" transform="translate(75.12 400.64) rotate(-122.82)"><tspan x="0" y="0"> </tspan></text>
  <text class="cls-1" transform="translate(69.01 391.58) rotate(-118.71)"><tspan x="0" y="0">d</tspan></text>
  <text class="cls-1" transform="translate(58.26 371.74) rotate(-113.9)"><tspan x="0" y="0">s</tspan></text>
  <text class="cls-1" transform="translate(51.48 356.49) rotate(-109.8)"><tspan x="0" y="0">s</tspan></text>
  <text class="cls-1" transform="translate(45.87 340.7) rotate(-106.38)"><tspan x="0" y="0"> </tspan></text>
  <text class="cls-1" transform="translate(42.58 330.31) rotate(-102.25)"><tspan x="0" y="0">d</tspan></text>
  <text class="cls-1" transform="translate(37.89 308.21) rotate(-97.44)"><tspan x="0" y="0">s</tspan></text>
  <text class="cls-1" transform="translate(35.71 291.65) rotate(-93.38)"><tspan x="0" y="0">s</tspan></text>
  <text class="cls-1" transform="translate(34.88 275.02) rotate(-90.93)"><tspan x="0" y="0"> </tspan></text>
  <text class="cls-1" transform="translate(34.56 264) rotate(-85.99)"><tspan x="0" y="0">d</tspan></text>
  <text class="cls-1" transform="translate(36.24 241.48) rotate(-81.22)"><tspan x="0" y="0">s</tspan></text>
  <text class="cls-1" transform="translate(38.77 224.99) rotate(-77.12)"><tspan x="0" y="0">s</tspan></text>
  <text class="cls-1" transform="translate(42.58 208.66) rotate(-73.7)"><tspan x="0" y="0"> </tspan></text>
  <text class="cls-1" transform="translate(45.41 198.14) rotate(-69.57)"><tspan x="0" y="0">d</tspan></text>
  <text class="cls-1" transform="translate(53.39 177.03) rotate(-64.75)"><tspan x="0" y="0">s</tspan></text>
  <text class="cls-1" transform="translate(60.49 161.94) rotate(-60.66)"><tspan x="0" y="0">s</tspan></text>
  <text class="cls-1" transform="translate(68.77 147.34) rotate(-57.27)"><tspan x="0" y="0"> </tspan></text>
  <text class="cls-1" transform="translate(74.47 138.05) rotate(-53.18)"><tspan x="0" y="0">d</tspan></text>
  <text class="cls-1" transform="translate(88.1 120.02) rotate(-48.41)"><tspan x="0" y="0">s</tspan></text>
  <text class="cls-1" transform="translate(99.16 107.54) rotate(-44.35)"><tspan x="0" y="0">s</tspan></text>
  <text class="cls-1" transform="translate(111.2 95.87) rotate(-40.98)"><tspan x="0" y="0"> </tspan></text>
</svg>